<svg xmlns="http://www.w3.org/2000/svg" width="23" height="22" viewBox="0 0 23 22">
  <defs>
    <style>
      .cls-1 {
        fill: #15cf34;
        fill-rule: evenodd;
      }
    </style>
  </defs>
  <path id="back_icon" data-name="back icon" class="cls-1" d="M308.372,127.254a0.854,0.854,0,0,1,.94-0.187,0.874,0.874,0,0,1,.531.807v4.667c4.66,0.188,6.993,2.146,7.35,2.471a13.3,13.3,0,0,1,4.539,7.707,13.794,13.794,0,0,1,.154,4.441v0l-0.006.039-0.183,1.069a0.87,0.87,0,0,1-.692.709,0.859,0.859,0,0,1-.9-0.409l-0.549-.929a12.173,12.173,0,0,0-6.252-5.6,8.949,8.949,0,0,0-3.462-.515v4.834a0.875,0.875,0,0,1-.533.808,0.855,0.855,0,0,1-.941-0.192l-9.117-9.288a0.884,0.884,0,0,1,0-1.237Zm-0.254,16.985v-3.5a0.872,0.872,0,0,1,.725-0.864,10.432,10.432,0,0,1,5.033.514,13.22,13.22,0,0,1,6.4,5.165,12.651,12.651,0,0,0-.234-2.5,11.4,11.4,0,0,0-3.958-6.709c-0.018-.015-0.036-0.031-0.053-0.048-0.061-.057-2.252-2.062-7.041-2.026h-0.006a0.869,0.869,0,0,1-.863-0.875v-3.423l-7.035,7.095Z" transform="translate(-299 -127)"/>
</svg>
