<svg xmlns="http://www.w3.org/2000/svg" width="26" height="26" viewBox="0 0 26 26">
  <defs>
    <style>
      .cls-1 {
        fill: #15cf34;
        fill-rule: evenodd;
      }
    </style>
  </defs>
  <path id="close_icon" data-name="close icon" class="cls-1" d="M280.644,163.355a0.818,0.818,0,0,0-1.158,0L276,166.846l-3.443-3.442a0.812,0.812,0,0,0-1.148,1.149L274.847,168l-3.466,3.465a0.819,0.819,0,0,0,1.158,1.158L276,169.152l3.442,3.442a0.812,0.812,0,0,0,1.149-1.149L277.153,168l3.491-3.491A0.818,0.818,0,0,0,280.644,163.355ZM276,155a13,13,0,1,0,13,13A13,13,0,0,0,276,155Zm0,24.371A11.373,11.373,0,1,1,287.373,168,11.373,11.373,0,0,1,276,179.373Z" transform="translate(-263 -155)"/>
</svg>
