<svg xmlns="http://www.w3.org/2000/svg" width="22" height="13" viewBox="0 0 22 13">
  <defs>
    <style>
      .cls-1 {
        fill: #a6a6a6;
        fill-rule: evenodd;
      }
    </style>
  </defs>
  <path id="eye" class="cls-1" d="M322,179a12.852,12.852,0,0,1-7.7-3.038,20.181,20.181,0,0,1-3.147-3.02,0.721,0.721,0,0,1,0-.884,20.181,20.181,0,0,1,3.147-3.02,11.272,11.272,0,0,1,15.4,0,20.181,20.181,0,0,1,3.147,3.02,0.721,0.721,0,0,1,0,.884,20.181,20.181,0,0,1-3.147,3.02A12.852,12.852,0,0,1,322,179Zm-9.522-6.5a20.109,20.109,0,0,0,2.572,2.382,10.112,10.112,0,0,0,13.9,0,20.179,20.179,0,0,0,2.572-2.382,20.109,20.109,0,0,0-2.572-2.382,10.112,10.112,0,0,0-13.9,0A20.109,20.109,0,0,0,312.474,172.5ZM322,176.688a4.2,4.2,0,0,1,0-8.376,3.681,3.681,0,0,1,2.54,1.037,0.717,0.717,0,0,1,.058.953,0.588,0.588,0,0,1-.878.063,2.493,2.493,0,0,0-1.72-.7,2.847,2.847,0,1,0,2.612,2.837,0.624,0.624,0,1,1,1.244,0A4.037,4.037,0,0,1,322,176.688Zm0-2.837a1.356,1.356,0,1,1,1.244-1.351A1.3,1.3,0,0,1,322,173.851Z" transform="translate(-311 -166)"/>
</svg>
