<svg xmlns="http://www.w3.org/2000/svg" width="15" height="14" viewBox="0 0 15 14">
  <defs>
    <style>
      .cls-1 {
        fill: #009be8;
        fill-rule: evenodd;
      }
    </style>
  </defs>
  <path id="icon_exit" data-name="icon exit" class="cls-1" d="M1460.75,24.793h7.13a0.8,0.8,0,0,0,0-1.6h-7.13l1.01-1.018a0.814,0.814,0,0,0,.23-0.573,0.79,0.79,0,0,0-.24-0.562,0.8,0.8,0,0,0-1.12,0l-2.39,2.386a0.625,0.625,0,0,0-.17.258,0.767,0.767,0,0,0-.01.612,1.074,1.074,0,0,0,.18.262l2.38,2.381a0.814,0.814,0,0,0,.58.244,0.8,0.8,0,0,0,.56-0.226A0.79,0.79,0,0,0,1462,26.4a0.749,0.749,0,0,0-.23-0.575Zm0.84,1.185h0ZM1471.23,17h-6.2a1.76,1.76,0,0,0-1.76,1.756v1.9a0.8,0.8,0,1,0,1.6,0v-1.9a0.155,0.155,0,0,1,.16-0.152h6.2a0.146,0.146,0,0,1,.15.152v10.49a0.147,0.147,0,0,1-.15.152h-6.2a0.155,0.155,0,0,1-.16-0.152v-1.9a0.8,0.8,0,1,0-1.6,0v1.9A1.76,1.76,0,0,0,1465.03,31h6.2a1.76,1.76,0,0,0,1.76-1.756V18.752A1.76,1.76,0,0,0,1471.23,17Z" transform="translate(-1458 -17)"/>
</svg>
