<svg xmlns="http://www.w3.org/2000/svg" width="24.844" height="15.94" viewBox="0 0 24.844 15.94">
  <defs>
    <style>
      .cls-1 {
        fill: #fff;
        fill-rule: evenodd;
      }
    </style>
  </defs>
  <path id="icon_vk" data-name="icon vk" class="cls-1" d="M899.49,6442.87h0a21.984,21.984,0,0,0-1.723-1.91c-0.207-.21-0.411-0.42-0.613-0.64-0.4-.42-0.408-0.46-0.091-0.94,0.279-.42.569-0.84,0.881-1.28l0.11-.16c0.3-.43.6-0.86,0.891-1.29l0.075-.11a10.6,10.6,0,0,0,1.5-2.88,1.783,1.783,0,0,0-.07-1.42,1.5,1.5,0,0,0-1.132-.71,2.668,2.668,0,0,0-.461-0.04h-3.721a1.58,1.58,0,0,0-1.557,1.17c-0.2.55-.424,1.13-0.676,1.69a14.637,14.637,0,0,1-1.9,3.23l-0.1.12-0.013-4.94a1.819,1.819,0,0,0-1.644-1.76l-3.776.01a1.954,1.954,0,0,0-1.637.86,1.115,1.115,0,0,0-.25,1.08,1,1,0,0,0,.82.66,0.559,0.559,0,0,1,.47.58,14.24,14.24,0,0,1,.049,3.12c-0.01.12-.023,0.22-0.04,0.32l-0.021.12-0.079-.09a4.936,4.936,0,0,1-.382-0.54,22.128,22.128,0,0,1-2.17-4.35,1.78,1.78,0,0,0-1.624-1.27c-1.179-.02-2.276-0.02-3.35,0a1.427,1.427,0,0,0-1.286.65,1.663,1.663,0,0,0,0,1.54,45.789,45.789,0,0,0,4.385,8.46,11.812,11.812,0,0,0,3.508,3.54,8.632,8.632,0,0,0,4.659,1.26c0.206,0,.413-0.01.618-0.02a1.709,1.709,0,0,0,1.819-1.92,3.482,3.482,0,0,1,.24-1.31l0.031-.06,0.056,0.04a2.49,2.49,0,0,1,.425.42l0.448,0.54c0.3,0.37.61,0.74,0.929,1.09a3.321,3.321,0,0,0,2.491,1.21,0.587,0.587,0,0,0,.175-0.01h3.518a1.414,1.414,0,0,0,1.132-.79,2.06,2.06,0,0,0,0-1.84A8.143,8.143,0,0,0,899.49,6442.87Zm-8.664-3.3a1.6,1.6,0,0,0,1.177-.7,15.405,15.405,0,0,0,2.288-3.79c0.279-.61.512-1.23,0.736-1.84l0.014-.07,0.123-.02,3.873,0.01-0.016.08a9.3,9.3,0,0,1-1.261,2.33l-0.072.11c-0.263.39-.533,0.78-0.8,1.16l-0.084.12c-0.363.52-.689,0.99-1,1.46a2.159,2.159,0,0,0,.267,3.09c0.209,0.22.419,0.44,0.632,0.65a20.717,20.717,0,0,1,1.6,1.77,6.588,6.588,0,0,1,.729,1.13,0.362,0.362,0,0,1,.038.15v0.06h-3.351a1.8,1.8,0,0,1-1.52-.7c-0.307-.34-0.6-0.7-0.9-1.06l-0.443-.53a4.119,4.119,0,0,0-.759-0.72,1.564,1.564,0,0,0-.926-0.32,1.435,1.435,0,0,0-1.307.91,5.027,5.027,0,0,0-.454,2.08c0,0.1-.007.2-0.015,0.27l0,0.04-0.045.01c-0.061.01-.166,0.01-0.271,0.02a7.643,7.643,0,0,1-4.441-1.02,10.2,10.2,0,0,1-3.033-3.09,43.423,43.423,0,0,1-4.121-7.91l-0.035-.08,0.087-.01c0.978-.01,1.978-0.01,3.053.01,0.076,0,.136.02,0.214,0.22a23.545,23.545,0,0,0,2.341,4.69,4.483,4.483,0,0,0,1.041,1.22,1.393,1.393,0,0,0,.844.31,1.275,1.275,0,0,0,1.186-.95,4.259,4.259,0,0,0,.253-1.2,15.876,15.876,0,0,0-.059-3.52,2.552,2.552,0,0,0-.454-1.18l-0.071-.09,3.264-.01c0.049,0.03.111,0.07,0.186,0.11,0,0.03.011,0.06,0.02,0.1h0l0.008,4.63a2.155,2.155,0,0,0,1.08,2A1.033,1.033,0,0,0,890.826,6439.57Z" transform="translate(-875.781 -6431)"/>
</svg>
