<svg xmlns="http://www.w3.org/2000/svg" width="54.5" height="97.94" viewBox="0 0 54.5 97.94">
  <defs>
    <style>
      .cls-1 {
        fill: #d6fcea;
        fill-rule: evenodd;
      }
    </style>
  </defs>
  <path id="_" data-name="?" class="cls-1" d="M451.269,2999.54a12.645,12.645,0,0,1,5.913,1.24,11.286,11.286,0,0,1,3.942,3.29,12.844,12.844,0,0,1,2.19,4.74,23.116,23.116,0,0,1,.657,5.48c0,3.31-1.609,5.23-2.825,7.76a41.643,41.643,0,0,1-4.38,7.15q-2.556,3.36-5.329,6.57a32.428,32.428,0,0,0-4.672,7.15,26.6,26.6,0,0,0-2.409,8.84,29.819,29.819,0,0,0,1.533,11.6h4.818a20.159,20.159,0,0,1,2.482-10.36,33.386,33.386,0,0,1,6.2-7.67,76.3,76.3,0,0,1,8.03-6.42,61.477,61.477,0,0,0,7.957-6.57,33.477,33.477,0,0,0,6.132-8.25A23.66,23.66,0,0,0,484,3012.85a22.845,22.845,0,0,0-1.971-9.49,20.976,20.976,0,0,0-5.694-7.52,28.316,28.316,0,0,0-8.906-4.97,35.438,35.438,0,0,0-11.753-1.82c-7.3,0-10.31.69-14.671,2.95-19.358,10.04-7.58,33.51-11.317,23.11q1.02,2.85,1.9,4.75h4.964S434.343,2999.68,451.269,2999.54Zm-7.965,85.3a8.511,8.511,0,0,0,6.1,2.17,8.882,8.882,0,0,0,6.2-2.17,7.405,7.405,0,0,0,2.4-5.79,7.571,7.571,0,0,0-2.4-5.84,8.777,8.777,0,0,0-6.2-2.22,8.412,8.412,0,0,0-6.1,2.22,7.732,7.732,0,0,0-2.3,5.84A7.559,7.559,0,0,0,443.3,3084.84Z" transform="translate(-429.5 -2989.06)"/>
</svg>
